<svg width="375" height="724" viewBox="0 0 375 724" fill="none" xmlns="http://www.w3.org/2000/svg">
<g clip-path="url(#clip0_126_1902)">
<rect width="375" height="724" fill="#FEC6C7"/>
<path d="M0 -88H375V156C375 178.091 357.091 196 335 196H40C17.9086 196 0 178.091 0 156V-88Z" fill="white"/>
<path d="M56.22 71.76V53.28H53.58V71.76H56.22ZM41.34 61.84L42.52 63.86C44.68 63.28 46.12 62.04 46.94 60.44C47.76 61.96 49.16 63.14 51.32 63.68L52.48 61.68C49.78 61 48.42 59.32 48.26 57.56H51.98V55.46H48.24V53.46H45.58V55.46H41.88V57.56H45.56C45.4 59.4 44.06 61.14 41.34 61.84ZM48.24 66V63.32H45.58V66.12C43.9 66.18 42.3 66.18 40.94 66.18L41.28 68.32C44.42 68.32 48.8 68.28 52.74 67.48L52.58 65.56C51.14 65.78 49.76 65.9 48.24 66ZM59.3184 57.04H69.4184V54.96H65.8184V53.16H63.1784V54.96H59.3184V57.04ZM69.6184 63.12H72.0184V65.02H74.6584V53.3H72.0184V57.34H69.6584V59.44H72.0184V61.02H69.6184V63.12ZM68.7984 61.12C68.7984 59.08 66.9984 57.68 64.4984 57.68C61.9584 57.68 60.1784 59.08 60.1784 61.12C60.1784 63.16 61.9584 64.56 64.4984 64.56C66.9984 64.56 68.7984 63.16 68.7984 61.12ZM62.6384 61.12C62.6384 60.16 63.3784 59.64 64.4984 59.64C65.6184 59.64 66.3584 60.16 66.3584 61.12C66.3584 62.08 65.6184 62.6 64.4984 62.6C63.3784 62.6 62.6384 62.08 62.6384 61.12ZM68.4384 65.26C64.5384 65.26 62.1184 66.48 62.1184 68.5C62.1184 70.52 64.5384 71.72 68.4384 71.72C72.3184 71.72 74.7384 70.52 74.7384 68.5C74.7384 66.48 72.3184 65.26 68.4384 65.26ZM68.4384 69.72C66.0984 69.72 64.9184 69.36 64.9184 68.5C64.9184 67.64 66.0984 67.28 68.4384 67.28C70.6984 67.28 71.9584 67.64 71.9584 68.5C71.9584 69.36 70.6984 69.72 68.4384 69.72ZM85.9569 62.22C89.8769 62.22 92.6169 60.62 92.6169 58.06C92.6169 55.58 89.8769 53.92 85.9569 53.92C82.0369 53.92 79.2969 55.58 79.2969 58.06C79.2969 60.62 82.0369 62.22 85.9569 62.22ZM85.9569 56.02C88.3769 56.02 89.8969 56.7 89.8969 58.06C89.8969 59.42 88.3769 60.12 85.9569 60.12C83.5369 60.12 81.9969 59.42 81.9969 58.06C81.9969 56.7 83.5369 56.02 85.9569 56.02ZM87.2569 65.72H94.3369V63.6H77.6569V65.72H84.6169V71.74H87.2569V65.72Z" fill="black"/>
<path d="M41.05 88.398V96H42.324V88.398H41.05ZM41.064 86.83H42.338V85.514H41.064V86.83ZM48.571 96.182C51.147 96.182 52.953 94.138 52.953 90.834C52.953 87.544 51.147 85.542 48.571 85.542C45.995 85.542 44.189 87.544 44.189 90.834C44.189 94.138 45.995 96.182 48.571 96.182ZM48.571 95.048C46.723 95.048 45.519 93.396 45.519 90.834C45.519 88.258 46.723 86.676 48.571 86.676C50.419 86.676 51.623 88.258 51.623 90.834C51.623 93.396 50.419 95.048 48.571 95.048ZM58.0236 96.182C60.1656 96.182 61.5096 94.894 61.5096 93.27C61.5096 91.744 60.5856 91.044 59.3956 90.526L57.9256 89.896C57.1276 89.56 56.2316 89.196 56.2316 88.188C56.2316 87.236 56.9736 86.676 58.1496 86.676C59.1016 86.676 59.8576 87.04 60.4876 87.642L61.1736 86.816C60.4456 86.032 59.3816 85.542 58.1496 85.542C56.2876 85.542 54.9156 86.69 54.9156 88.272C54.9156 89.784 56.0636 90.498 57.0016 90.904L58.4856 91.548C59.4516 91.996 60.1936 92.318 60.1936 93.368C60.1936 94.376 59.3816 95.048 58.0376 95.048C56.9736 95.048 55.9376 94.558 55.1956 93.774L54.4256 94.656C55.3216 95.608 56.5676 96.182 58.0236 96.182ZM69.228 85.738H66.652V96H69.284C72.364 96 74.072 94.082 74.072 90.834C74.072 87.488 72.462 85.738 69.228 85.738ZM69.116 94.936H67.954V86.788H69.116C71.594 86.788 72.728 88.188 72.728 90.834C72.728 93.424 71.538 94.936 69.116 94.936ZM79.2173 96.182C80.2813 96.182 81.0653 95.832 81.7373 95.398L81.2753 94.558C80.7153 94.936 80.1133 95.16 79.3713 95.16C77.9153 95.16 76.9493 94.138 76.8513 92.5H81.9753C82.0173 92.318 82.0313 92.052 82.0313 91.772C82.0313 89.602 80.9393 88.202 79.0073 88.202C77.2433 88.202 75.5773 89.742 75.5773 92.206C75.5773 94.726 77.2013 96.182 79.2173 96.182ZM80.9113 91.59H76.8373C76.9913 90.092 77.9433 89.224 79.0213 89.224C80.2113 89.224 80.9113 90.008 80.9113 91.59ZM84.1272 88.398H82.7972L85.5412 96H87.0252L89.7272 88.398H88.4672L87.0252 92.724C86.8012 93.466 86.5492 94.25 86.3252 94.964H86.2692C86.0312 94.25 85.7932 93.466 85.5552 92.724L84.1272 88.398ZM94.27 96.182C95.334 96.182 96.118 95.832 96.79 95.398L96.328 94.558C95.768 94.936 95.166 95.16 94.424 95.16C92.968 95.16 92.002 94.138 91.904 92.5H97.028C97.07 92.318 97.084 92.052 97.084 91.772C97.084 89.602 95.992 88.202 94.06 88.202C92.296 88.202 90.63 89.742 90.63 92.206C90.63 94.726 92.254 96.182 94.27 96.182ZM95.964 91.59H91.89C92.044 90.092 92.996 89.224 94.074 89.224C95.264 89.224 95.964 90.008 95.964 91.59ZM98.956 84.856V96H100.23V84.856H98.956ZM105.738 96.182C107.6 96.182 109.266 94.726 109.266 92.206C109.266 89.672 107.6 88.202 105.738 88.202C103.876 88.202 102.21 89.672 102.21 92.206C102.21 94.726 103.876 96.182 105.738 96.182ZM105.738 95.118C104.436 95.118 103.54 93.956 103.54 92.206C103.54 90.456 104.436 89.266 105.738 89.266C107.04 89.266 107.95 90.456 107.95 92.206C107.95 93.956 107.04 95.118 105.738 95.118ZM112.324 88.398H111.274V99.206H112.548V96.63L112.52 95.3C113.206 95.86 113.934 96.182 114.62 96.182C116.356 96.182 117.924 94.698 117.924 92.08C117.924 89.742 116.86 88.202 114.9 88.202C114.004 88.202 113.164 88.706 112.478 89.266H112.436L112.324 88.398ZM114.41 95.118C113.906 95.118 113.234 94.922 112.548 94.32V90.33C113.29 89.644 113.934 89.28 114.592 89.28C116.034 89.28 116.594 90.414 116.594 92.094C116.594 93.984 115.684 95.118 114.41 95.118ZM123.022 96.182C124.086 96.182 124.87 95.832 125.542 95.398L125.08 94.558C124.52 94.936 123.918 95.16 123.176 95.16C121.72 95.16 120.754 94.138 120.656 92.5H125.78C125.822 92.318 125.836 92.052 125.836 91.772C125.836 89.602 124.744 88.202 122.812 88.202C121.048 88.202 119.382 89.742 119.382 92.206C119.382 94.726 121.006 96.182 123.022 96.182ZM124.716 91.59H120.642C120.796 90.092 121.748 89.224 122.826 89.224C124.016 89.224 124.716 90.008 124.716 91.59ZM128.758 88.398H127.708V96H128.982V91.114C129.472 89.812 130.284 89.364 130.9 89.364C131.222 89.364 131.376 89.392 131.642 89.49L131.88 88.37C131.642 88.244 131.404 88.202 131.068 88.202C130.214 88.202 129.458 88.818 128.912 89.784H128.87L128.758 88.398Z" fill="#BBBCBD"/>
<rect x="40.5" y="117.5" width="100" height="23" rx="9.5" fill="white" stroke="#FEC6C7"/>
<path d="M56.128 129.716H61.036V128.792H63.508V130.496H64.504V124.136H63.508V125.876H61.036V124.94H56.128V129.716ZM57.1 125.732H60.076V128.936H57.1V125.732ZM61.036 128V126.668H63.508V128H61.036ZM60.94 130.82C58.732 130.82 57.364 131.552 57.364 132.848C57.364 134.132 58.732 134.876 60.94 134.876C63.16 134.876 64.528 134.132 64.528 132.848C64.528 131.552 63.16 130.82 60.94 130.82ZM60.94 134.108C59.296 134.108 58.348 133.664 58.348 132.848C58.348 132.032 59.296 131.588 60.94 131.588C62.584 131.588 63.556 132.032 63.556 132.848C63.556 133.664 62.584 134.108 60.94 134.108ZM66.7111 126.056H73.0591V125.264H70.3711V124.028H69.3871V125.264H66.7111V126.056ZM75.0271 127.808H76.6231V126.992H75.0271V124.136H74.0431V130.604H75.0271V127.808ZM72.4591 128.516C72.4591 127.328 71.4151 126.596 69.8791 126.596C68.3431 126.596 67.3111 127.328 67.3111 128.516C67.3111 129.68 68.3431 130.424 69.8791 130.424C71.4151 130.424 72.4591 129.68 72.4591 128.516ZM68.2471 128.516C68.2471 127.796 68.8711 127.34 69.8791 127.34C70.8871 127.34 71.5231 127.796 71.5231 128.516C71.5231 129.236 70.8871 129.692 69.8791 129.692C68.8711 129.692 68.2471 129.236 68.2471 128.516ZM75.0271 131.216H68.2711V134.744H75.0271V131.216ZM74.0551 133.952H69.2311V131.996H74.0551V133.952ZM81.4057 126.008H88.0057V126.392C88.0057 128.024 87.9337 129.44 87.6337 131.06L88.6057 131.18C88.9897 129.164 88.9897 127.76 88.9897 126.392V125.204H81.4057V126.008ZM90.1297 133.376V132.572H86.4217V129.008H85.4497V132.572H83.7577V129.008H82.7857V132.572H80.3977V133.376H90.1297ZM91.6528 125.912H97.8328V125.18H95.2408V124.088H94.2568V125.18H91.6528V125.912ZM101.361 128.696V127.88H99.7768V124.124H98.7928V132.548H99.7768V128.696H101.361ZM98.2288 130.844L98.1568 130.136C97.2328 130.292 96.2488 130.376 95.2408 130.424V129.656C96.4888 129.524 97.2568 128.936 97.2568 128.012C97.2568 126.992 96.2488 126.368 94.7488 126.368C93.2368 126.368 92.2288 126.992 92.2288 128.012C92.2288 128.936 93.0088 129.524 94.2568 129.656V130.472C93.2008 130.508 92.2528 130.52 91.3888 130.52L91.4968 131.312C93.3808 131.312 95.9488 131.264 98.2288 130.844ZM93.1648 128.012C93.1648 127.436 93.7768 127.064 94.7488 127.064C95.7088 127.064 96.3208 127.436 96.3208 128.012C96.3208 128.624 95.7088 128.972 94.7488 128.972C93.7768 128.972 93.1648 128.624 93.1648 128.012ZM100.161 133.844H93.9568V131.996H92.9728V134.648H100.161V133.844ZM113.007 132.02H113.991V124.124H113.007V132.02ZM111.123 130.268L111.639 129.488C110.055 128.912 108.951 127.436 108.951 125.816V124.724H107.967V125.816C107.967 127.496 106.899 129.068 105.267 129.68L105.783 130.484C107.043 129.956 108.003 128.912 108.471 127.604C108.951 128.852 109.875 129.8 111.123 130.268ZM114.315 134.648V133.844H108.051V131.288H107.067V134.648H114.315ZM122.115 130.196L122.571 129.44C120.987 128.96 119.871 127.76 119.871 126.416V126.212H122.247V125.42H119.871V124.076H118.887V125.42H116.499V126.212H118.887V126.416C118.887 127.868 117.795 129.176 116.223 129.716L116.703 130.472C117.999 130.052 118.935 129.164 119.403 127.964C119.895 129.02 120.867 129.812 122.115 130.196ZM124.071 124.124V127.184H121.923V128H124.071V130.652H125.067V124.124H124.071ZM121.503 130.928C119.295 130.928 117.927 131.648 117.927 132.896C117.927 134.156 119.295 134.876 121.503 134.876C123.747 134.876 125.103 134.156 125.103 132.896C125.103 131.648 123.747 130.928 121.503 130.928ZM121.503 134.108C119.859 134.108 118.911 133.664 118.911 132.896C118.911 132.128 119.859 131.696 121.503 131.696C123.147 131.696 124.119 132.128 124.119 132.896C124.119 133.664 123.147 134.108 121.503 134.108Z" fill="#898D91"/>
<path d="M20 256C20 253.791 21.7909 252 24 252H335C346.046 252 355 260.954 355 272V304C355 315.046 346.046 324 335 324H40C28.9543 324 20 315.046 20 304V256Z" fill="white"/>
<path d="M23 372C23 369.791 24.7909 368 27 368H338C349.046 368 358 376.954 358 388V420C358 431.046 349.046 440 338 440H43C31.9543 440 23 431.046 23 420V372Z" fill="white"/>
<path d="M52.672 288.928L53.232 287.84C50.72 287.408 47.984 285.28 47.984 282.896V281.792H46.608V282.896C46.608 285.28 43.888 287.408 41.376 287.84L41.92 288.928C44.128 288.464 46.352 286.976 47.296 284.928C48.24 286.976 50.48 288.448 52.672 288.928ZM53.872 293.312V292.24H47.952V288.752H46.64V292.24H40.848V293.312H53.872ZM67.2628 286.608L67.7588 285.552C65.1988 285.216 62.7188 283.6 62.7188 281.696V281.056H61.3748V281.696C61.3748 283.6 58.9108 285.216 56.3508 285.552L56.8468 286.608C59.0388 286.224 61.1508 285.12 62.0468 283.456C62.9427 285.12 65.0868 286.224 67.2628 286.608ZM68.5908 289.104V288.032H62.7028V285.856H61.3908V288.032H55.5668V289.104H68.5908ZM66.9428 290.496H57.0068V291.568H65.6308V295.2H66.9428V290.496Z" fill="black"/>
<path d="M105.392 282.272H103.6V294H104.944V287.504C104.944 286.496 104.816 285.088 104.768 284.048H104.832L105.76 286.72L107.984 292.816H108.976L111.2 286.72L112.128 284.048H112.192C112.112 285.088 112 286.496 112 287.504V294H113.392V282.272H111.6L109.36 288.544C109.088 289.36 108.832 290.176 108.56 290.992H108.48C108.176 290.176 107.92 289.36 107.648 288.544L105.392 282.272ZM119.848 294.208C122.296 294.208 123.832 292.736 123.832 290.88C123.832 289.136 122.776 288.336 121.416 287.744L119.736 287.024C118.824 286.64 117.8 286.224 117.8 285.072C117.8 283.984 118.648 283.344 119.992 283.344C121.08 283.344 121.944 283.76 122.664 284.448L123.448 283.504C122.616 282.608 121.4 282.048 119.992 282.048C117.864 282.048 116.296 283.36 116.296 285.168C116.296 286.896 117.608 287.712 118.68 288.176L120.376 288.912C121.48 289.424 122.328 289.792 122.328 290.992C122.328 292.144 121.4 292.912 119.864 292.912C118.648 292.912 117.464 292.352 116.616 291.456L115.736 292.464C116.76 293.552 118.184 294.208 119.848 294.208ZM130.739 294.208C132.339 294.208 133.619 293.632 134.371 292.848V287.92H130.531V289.152H133.011V292.224C132.547 292.656 131.731 292.912 130.883 292.912C128.371 292.912 126.979 291.056 126.979 288.096C126.979 285.152 128.515 283.344 130.867 283.344C132.083 283.344 132.819 283.84 133.411 284.464L134.211 283.504C133.523 282.784 132.467 282.048 130.835 282.048C127.715 282.048 125.459 284.352 125.459 288.144C125.459 291.936 127.651 294.208 130.739 294.208Z" fill="#BBBCBD"/>
<path d="M54.312 404.664H55.624V395.832H54.312V404.664ZM52.712 403.32L52.568 402.264C50.296 402.648 48.44 402.712 45.88 402.712V400.696H51.08V396.728H44.552V397.8H49.784V399.688H44.6V403.784H45.752C48.392 403.784 50.376 403.704 52.712 403.32ZM50.872 404.968C47.864 404.968 46.072 405.896 46.072 407.56C46.072 409.224 47.88 410.168 50.872 410.168C53.864 410.168 55.704 409.224 55.704 407.56C55.704 405.912 53.864 404.968 50.872 404.968ZM50.872 409.128C48.68 409.128 47.384 408.584 47.384 407.56C47.384 406.584 48.68 406.008 50.872 406.008C53.128 406.008 54.392 406.584 54.392 407.56C54.392 408.584 53.128 409.128 50.872 409.128ZM68.6468 401.272L59.7508 401.656L59.9428 402.744L68.5988 402.264C68.5188 403.368 68.3588 404.52 68.0548 405.928L69.3348 406.056C69.9748 403.112 69.9588 401.144 69.9588 399.048V397.288H60.1188V398.36H68.6788V400.152C68.6788 400.52 68.6628 400.904 68.6468 401.272ZM71.5588 408.184V407.112H58.5828V408.184H71.5588Z" fill="black"/>
<path d="M104.928 396.264H103.472V409H104.928V402.696C105.808 401.816 106.416 401.368 107.312 401.368C108.464 401.368 108.96 402.024 108.96 403.688V409H110.416V403.496C110.416 401.24 109.632 400.088 107.76 400.088C106.56 400.088 105.696 400.728 104.88 401.544L104.928 399.752V396.264ZM115.927 409.208C116.455 409.208 117.031 409.064 117.527 408.888L117.239 407.8C116.935 407.912 116.551 408.024 116.247 408.024C115.223 408.024 114.903 407.432 114.903 406.344V401.496H117.255V400.312H114.903V397.88H113.687L113.511 400.312L112.151 400.392V401.496H113.447V406.312C113.447 408.056 114.071 409.208 115.927 409.208ZM121.599 409.208C122.127 409.208 122.703 409.064 123.199 408.888L122.911 407.8C122.607 407.912 122.223 408.024 121.919 408.024C120.895 408.024 120.575 407.432 120.575 406.344V401.496H122.927V400.312H120.575V397.88H119.359L119.183 400.312L117.823 400.392V401.496H119.119V406.312C119.119 408.056 119.743 409.208 121.599 409.208ZM126.094 400.312H124.894V412.664H126.35V409.72L126.318 408.2C127.102 408.84 127.934 409.208 128.718 409.208C130.702 409.208 132.494 407.512 132.494 404.52C132.494 401.848 131.278 400.088 129.038 400.088C128.014 400.088 127.054 400.664 126.27 401.304H126.222L126.094 400.312ZM128.478 407.992C127.902 407.992 127.134 407.768 126.35 407.08V402.52C127.198 401.736 127.934 401.32 128.686 401.32C130.334 401.32 130.974 402.616 130.974 404.536C130.974 406.696 129.934 407.992 128.478 407.992ZM137.088 409.208C139.136 409.208 140.256 408.04 140.256 406.632C140.256 405 138.864 404.456 137.6 403.992C136.624 403.608 135.68 403.32 135.68 402.488C135.68 401.8 136.176 401.24 137.264 401.24C138.048 401.24 138.64 401.56 139.264 402.008L139.968 401.064C139.28 400.536 138.352 400.088 137.264 400.088C135.376 400.088 134.272 401.192 134.272 402.552C134.272 404.008 135.648 404.632 136.864 405.064C137.824 405.448 138.848 405.832 138.848 406.712C138.848 407.464 138.288 408.072 137.136 408.072C136.096 408.072 135.312 407.672 134.56 407.048L133.84 408.008C134.672 408.696 135.856 409.208 137.088 409.208ZM143.452 399.768H141.996V401.272H143.452V399.768ZM143.452 406.584H141.996V408.088H143.452V406.584ZM150.657 395.512H149.601L144.801 411.064H145.873L150.657 395.512ZM156.923 395.512H155.867L151.067 411.064H152.139L156.923 395.512ZM161.556 413C164.244 413 165.94 411.608 165.94 409.992C165.94 408.568 164.98 407.928 162.916 407.928H161.22C160.052 407.928 159.7 407.544 159.7 406.984C159.7 406.488 159.94 406.216 160.26 405.944C160.66 406.152 161.092 406.248 161.556 406.248C163.3 406.248 164.724 405.08 164.724 403.224C164.724 402.472 164.452 401.832 164.02 401.432H165.796V400.312H162.772C162.468 400.2 162.052 400.088 161.556 400.088C159.812 400.088 158.292 401.288 158.292 403.192C158.292 404.232 158.852 405.064 159.428 405.528V405.592C158.98 405.912 158.452 406.488 158.452 407.208C158.452 407.896 158.788 408.36 159.252 408.632V408.696C158.436 409.224 157.956 409.912 157.956 410.664C157.956 412.168 159.428 413 161.556 413ZM161.556 405.256C160.548 405.256 159.7 404.456 159.7 403.192C159.7 401.912 160.532 401.16 161.556 401.16C162.58 401.16 163.396 401.912 163.396 403.192C163.396 404.456 162.532 405.256 161.556 405.256ZM161.764 412.008C160.164 412.008 159.236 411.432 159.236 410.472C159.236 409.96 159.508 409.448 160.132 409C160.516 409.112 160.932 409.144 161.252 409.144H162.756C163.908 409.144 164.532 409.4 164.532 410.216C164.532 411.128 163.428 412.008 161.764 412.008ZM167.372 400.312V409H168.828V400.312H167.372ZM167.388 398.52H168.844V397.016H167.388V398.52ZM174.239 409.208C174.767 409.208 175.343 409.064 175.839 408.888L175.551 407.8C175.247 407.912 174.863 408.024 174.559 408.024C173.535 408.024 173.215 407.432 173.215 406.344V401.496H175.567V400.312H173.215V397.88H171.999L171.823 400.312L170.463 400.392V401.496H171.759V406.312C171.759 408.056 172.383 409.208 174.239 409.208ZM178.991 396.264H177.535V409H178.991V402.696C179.871 401.816 180.479 401.368 181.375 401.368C182.527 401.368 183.023 402.024 183.023 403.688V409H184.479V403.496C184.479 401.24 183.695 400.088 181.823 400.088C180.623 400.088 179.759 400.728 178.943 401.544L178.991 399.752V396.264ZM189.781 409.208C190.981 409.208 191.845 408.584 192.661 407.64H192.709L192.821 409H194.037V400.312H192.581V406.472C191.749 407.512 191.125 407.944 190.229 407.944C189.077 407.944 188.597 407.256 188.597 405.64V400.312H187.141V405.816C187.141 408.072 187.909 409.208 189.781 409.208ZM200.796 409.208C202.78 409.208 204.572 407.512 204.572 404.504C204.572 401.864 203.356 400.088 201.1 400.088C200.14 400.088 199.164 400.632 198.38 401.32L198.428 399.752V396.264H196.972V409H198.14L198.268 408.104H198.316C199.084 408.808 199.98 409.208 200.796 409.208ZM200.556 407.992C199.98 407.992 199.196 407.768 198.428 407.08V402.52C199.26 401.736 200.012 401.32 200.764 401.32C202.412 401.32 203.052 402.616 203.052 404.536C203.052 406.696 202.012 407.992 200.556 407.992ZM207.519 407.72H206.063V409.224H207.519V407.72ZM213.974 409.208C215.014 409.208 216.006 408.808 216.774 408.104L216.15 407.128C215.59 407.624 214.918 407.992 214.102 407.992C212.502 407.992 211.414 406.664 211.414 404.664C211.414 402.664 212.566 401.304 214.134 401.304C214.838 401.304 215.366 401.624 215.878 402.088L216.63 401.112C216.006 400.552 215.238 400.088 214.086 400.088C211.862 400.088 209.894 401.768 209.894 404.664C209.894 407.544 211.67 409.208 213.974 409.208ZM221.676 409.208C223.804 409.208 225.708 407.544 225.708 404.664C225.708 401.768 223.804 400.088 221.676 400.088C219.548 400.088 217.644 401.768 217.644 404.664C217.644 407.544 219.548 409.208 221.676 409.208ZM221.676 407.992C220.188 407.992 219.164 406.664 219.164 404.664C219.164 402.664 220.188 401.304 221.676 401.304C223.164 401.304 224.204 402.664 224.204 404.664C224.204 406.664 223.164 407.992 221.676 407.992ZM229.203 400.312H228.003V409H229.459V402.696C230.243 401.816 230.979 401.368 231.651 401.368C232.755 401.368 233.267 402.024 233.267 403.688V409H234.723V402.696C235.539 401.816 236.275 401.368 236.915 401.368C238.019 401.368 238.531 402.024 238.531 403.688V409H239.987V403.496C239.987 401.24 239.155 400.088 237.347 400.088C236.259 400.088 235.379 400.776 234.483 401.752C234.115 400.728 233.427 400.088 232.083 400.088C231.043 400.088 230.131 400.744 229.379 401.576H229.331L229.203 400.312ZM247.376 395.512H246.32L241.52 411.064H242.592L247.376 395.512ZM252.905 409.208C254.889 409.208 256.681 407.512 256.681 404.504C256.681 401.864 255.465 400.088 253.209 400.088C252.249 400.088 251.273 400.632 250.489 401.32L250.537 399.752V396.264H249.081V409H250.249L250.377 408.104H250.425C251.193 408.808 252.089 409.208 252.905 409.208ZM252.665 407.992C252.089 407.992 251.305 407.768 250.537 407.08V402.52C251.369 401.736 252.121 401.32 252.873 401.32C254.521 401.32 255.161 402.616 255.161 404.536C255.161 406.696 254.121 407.992 252.665 407.992ZM260.706 409.208C261.794 409.208 262.77 408.76 263.602 408.072H263.65L263.778 409H264.978V403.656C264.978 401.528 264.082 400.088 261.97 400.088C260.562 400.088 259.282 400.6 258.466 401.112L259.042 402.152C259.73 401.688 260.706 401.304 261.73 401.304C263.154 401.304 263.522 402.376 263.522 403.496C260.082 403.544 258.178 404.424 258.178 406.664C258.178 408.248 259.25 409.208 260.706 409.208ZM261.122 408.04C260.226 408.04 259.602 407.592 259.602 406.568C259.602 405.224 260.434 404.664 263.522 404.456V407.032C262.674 407.784 261.97 408.04 261.122 408.04ZM271.257 409.208C272.473 409.208 273.369 408.808 274.137 408.312L273.609 407.352C272.969 407.784 272.281 408.04 271.433 408.04C269.769 408.04 268.665 406.872 268.553 405H274.409C274.457 404.792 274.473 404.488 274.473 404.168C274.473 401.688 273.225 400.088 271.017 400.088C269.001 400.088 267.097 401.848 267.097 404.664C267.097 407.544 268.953 409.208 271.257 409.208ZM273.193 403.96H268.537C268.713 402.248 269.801 401.256 271.033 401.256C272.393 401.256 273.193 402.152 273.193 403.96ZM278.053 396.264H276.613V409H278.053V406.712L279.685 404.808L282.229 409H283.813L280.517 403.8L283.429 400.312H281.813L278.085 404.904H278.053V396.264ZM287.802 409.208C288.33 409.208 288.906 409.064 289.402 408.888L289.114 407.8C288.81 407.912 288.426 408.024 288.122 408.024C287.098 408.024 286.778 407.432 286.778 406.344V401.496H289.13V400.312H286.778V397.88H285.562L285.386 400.312L284.026 400.392V401.496H285.322V406.312C285.322 408.056 285.946 409.208 287.802 409.208ZM294.601 409.208C295.817 409.208 296.713 408.808 297.481 408.312L296.953 407.352C296.313 407.784 295.625 408.04 294.777 408.04C293.113 408.04 292.009 406.872 291.897 405H297.753C297.801 404.792 297.817 404.488 297.817 404.168C297.817 401.688 296.569 400.088 294.361 400.088C292.345 400.088 290.441 401.848 290.441 404.664C290.441 407.544 292.297 409.208 294.601 409.208ZM296.537 403.96H291.881C292.057 402.248 293.145 401.256 294.377 401.256C295.737 401.256 296.537 402.152 296.537 403.96ZM302.484 409.208C303.684 409.208 304.548 408.584 305.364 407.64H305.412L305.524 409H306.74V400.312H305.284V406.472C304.452 407.512 303.828 407.944 302.932 407.944C301.78 407.944 301.3 407.256 301.3 405.64V400.312H299.844V405.816C299.844 408.072 300.612 409.208 302.484 409.208ZM310.875 400.312H309.675V409H311.131V402.696C312.011 401.816 312.619 401.368 313.515 401.368C314.667 401.368 315.163 402.024 315.163 403.688V409H316.619V403.496C316.619 401.24 315.835 400.088 313.963 400.088C312.763 400.088 311.883 400.744 311.051 401.56H311.003L310.875 400.312Z" fill="#BBBCBD"/>
</g>
<defs>
<clipPath id="clip0_126_1902">
<rect width="375" height="724" fill="white"/>
</clipPath>
</defs>
</svg>
