<svg width="71" height="32" viewBox="0 0 71 32" fill="none" xmlns="http://www.w3.org/2000/svg">
<path d="M34.2483 12.2399L34.4336 12.5178L34.5263 12.4252C34.5572 12.3326 34.6189 12.1287 34.6189 12.0546C34.6189 11.962 34.7116 11.962 34.8042 11.962C34.8783 11.962 34.8351 11.8384 34.8042 11.7767C34.8351 11.7149 34.8969 11.5728 34.8969 11.4987C34.8969 11.4061 34.9895 11.3134 34.9895 11.2208C34.9895 11.1467 35.0513 11.0046 35.0822 10.9428V10.6649C35.0822 10.5908 34.9586 10.4487 34.8969 10.3869H34.8042L34.7116 10.0164L34.4336 9.83105L34.1557 9.9237L33.9704 10.0164C33.9395 10.109 33.8592 10.3128 33.7851 10.3869C33.6924 10.4796 33.7851 10.4796 33.6924 10.6649C33.5998 10.8502 33.6924 10.7575 33.7851 10.8502C33.8777 10.9428 33.8777 10.9428 33.8777 11.0355C33.8777 11.1096 33.816 11.2517 33.7851 11.3134L33.9704 11.5914L34.063 11.8693L34.2483 12.2399Z" stroke="#A3DCF0" stroke-width="0.185296"/>
<path d="M33.7848 18.5401C33.8465 18.5093 34.1553 18.151 34.1553 18.0769L34.248 18.2622V18.3548L34.4333 18.4475L34.5259 18.7254V18.8181C34.5568 18.849 34.6186 18.9293 34.6186 19.0034C34.6186 19.0775 34.6804 19.0343 34.7112 19.0034L34.8965 19.1887V19.374L34.9892 19.6519L35.1745 20.0225L35.3598 20.3005L35.4524 20.4858L35.6377 20.6711L35.7304 20.949L35.823 21.1343V21.3196L35.6377 21.5049L35.4524 21.6902L35.2671 21.8755C35.1745 21.9681 35.0818 21.8755 34.9892 21.8755H34.8039L34.6186 22.0608C34.5259 22.0917 34.3221 22.1534 34.248 22.1534H34.1553H33.8774H33.5995C33.5377 22.0917 33.3956 21.9681 33.3215 21.9681C33.2474 21.9681 33.1671 21.9064 33.1362 21.8755L32.9509 21.7828L32.8583 21.5975L32.7656 21.4122L32.8583 21.0416V20.8563L32.9509 20.4858V20.3005L33.0436 19.9299L33.2289 19.6519L33.3215 19.4666L33.4142 19.1887C33.445 19.1578 33.5253 19.096 33.5995 19.096C33.6921 19.096 33.5995 19.0034 33.6921 18.9107C33.7662 18.8366 33.723 18.7563 33.6921 18.7254L33.7848 18.5401Z" stroke="#A3DCF0" stroke-width="0.185296"/>
<path d="M1.30858 25.8747L1 27.5719L1.15429 27.8805L1.77144 28.3433L2.23431 28.6519C2.44003 28.8062 2.88233 29.1148 3.00576 29.1148C3.12919 29.1148 3.57148 29.4234 3.7772 29.5777L4.54865 29.8862L5.01151 30.0405L5.47438 30.1948L6.24582 30.5034L7.01727 30.6577L7.63443 30.9663L8.09729 31.1205L8.25158 30.9663L8.40587 30.6577L8.56016 30.3491L8.71445 29.7319V29.4234C8.76588 29.2691 8.86874 28.9296 8.86874 28.8062V28.3433V27.8805L9.02303 27.109L9.17731 26.3376V25.7204L9.3316 25.4119V24.7947C9.3316 24.6713 9.43446 24.229 9.48589 24.0233L9.64018 23.5604L9.79447 23.4061V23.0975V22.7889L9.94876 22.4804V21.8632V21.5546L10.103 20.9375L10.4116 20.4746V20.166L10.5659 19.8574V19.3946L10.8745 18.4688L11.0288 17.6974L11.1831 17.2345L11.4916 15.8459L11.6459 15.5374L11.9545 15.0745L12.1088 14.9202L12.2631 15.2288L12.4174 15.3831V15.8459L12.726 16.3088L12.8802 16.926L13.0345 17.342V17.3888L13.3431 18.1603C13.446 18.4174 13.6517 18.9626 13.6517 19.086V19.5489L13.9603 20.3203C14.0117 20.526 14.1146 20.9683 14.1146 21.0918C14.1146 21.2152 14.3203 21.6575 14.4231 21.8632C14.526 22.1204 14.7317 22.6655 14.7317 22.7889C14.7317 22.9124 14.8346 23.2518 14.886 23.4061L15.0403 23.7147V24.3318L15.6575 26.029L15.8117 26.4919L15.966 26.9547L16.4289 28.8062L17.2003 30.0405L18.1261 30.3491L18.7432 30.1948L19.3604 29.8862L19.5147 29.5777V29.1148L19.9775 28.3433L20.1318 27.109C20.1833 27.0576 20.2861 26.9239 20.2861 26.8005C20.2861 26.6462 20.4404 26.3376 20.5947 26.1833C20.7181 26.0599 20.749 25.7204 20.749 25.5661L21.0576 24.3318L21.3661 23.7147C21.3661 23.4575 21.397 22.9124 21.5204 22.7889C21.6439 22.6655 21.6747 22.2232 21.6747 22.0175L21.9833 21.0918L22.4462 20.0117C22.4976 19.8574 22.6313 19.518 22.7547 19.3946C22.8782 19.2712 22.909 18.726 22.909 18.4688C23.0119 18.2631 23.2176 17.8208 23.2176 17.6974V17.3888L23.5262 16.4631L23.8348 15.8459L24.2976 15.0745L24.7605 14.7659H24.9148C24.9662 15.0231 25.0999 15.5374 25.2234 15.5374C25.3468 15.5374 25.3777 15.7431 25.3777 15.8459V16.926L25.5319 17.3888L25.6862 17.6974L25.8405 18.1603L25.9948 19.3946L26.3034 20.3203L26.612 21.5546L26.4577 21.8632L26.7663 22.4804V22.9432L26.9205 23.2518V23.7147C27.0234 23.9204 27.2291 24.3627 27.2291 24.4861V25.2576V25.4119L27.5377 26.6462L27.692 28.0348L27.8463 28.9605V29.4234C27.8463 29.5777 28.0006 29.7319 28.0006 29.8862C28.0006 30.0097 28.2063 30.1434 28.3091 30.1948L28.772 30.3491H29.3892L29.5435 30.1948L30.0063 30.0405L30.1606 29.8862H30.6235L31.2406 29.5777L31.8578 29.4234L32.9378 29.1148L33.7093 28.6519L34.1721 28.4976L34.7893 28.3433L35.2521 28.0348V27.7262V27.109L35.0979 25.7204L34.9436 25.4119L34.7893 24.7947L34.635 24.1775L34.4807 23.869V23.7147C34.3778 23.509 34.1721 23.0667 34.1721 22.9432C34.1721 22.8198 34.0693 22.5832 34.0178 22.4804L33.8635 21.5546L33.7093 21.2461V20.7832L33.4007 20.3203L33.2464 19.3946L33.0921 18.3146V18.006L32.9378 17.0802V16.1545L32.6292 15.5374L32.4749 15.2288L32.3207 14.6116L32.1664 13.8402V13.5316L32.0121 12.7602L31.8578 12.143L31.7035 11.3716L31.5492 10.9087V10.1372L31.2406 9.05722L31.0863 8.59436V7.9772L30.9321 7.51433V6.89718L30.6235 6.43431L30.4692 6.12573V5.2V4.42855L30.1606 3.65711L30.0063 3.19424V2.88566L29.6977 2.26851V1.95993L28.9263 1.49706L28.1549 1.34277H27.692C27.5891 1.3942 27.3526 1.49706 27.2291 1.49706H26.7663H26.3034L25.9948 1.34277H25.3777H25.0691C24.9662 1.3942 24.7296 1.49706 24.6062 1.49706H24.2432H23.8348H23.6805L23.3719 1.34277L23.0633 1.65135C23.0119 1.59992 22.8782 1.49706 22.7547 1.49706H22.2919L21.829 2.26851L21.5204 2.88566L21.3661 3.34853L21.0576 4.11997V4.58284L20.4404 5.97144L20.2861 6.43431L20.1318 7.05147L19.8233 7.66862L19.669 7.9772L19.3604 9.3658L19.0518 9.67438L18.7432 10.4458L18.4347 11.063L18.2804 11.8344L17.9718 12.2973L17.8175 12.9144L17.5089 12.7602L17.2003 12.6059L17.0461 12.143L16.8918 11.063L16.7375 10.4458L16.5832 9.82867L16.4289 9.21151L16.1203 8.44007L15.966 7.9772V7.51433L15.8117 7.05147L15.6575 6.43431V5.81715L15.3489 5.35429L15.1946 4.89142L15.0403 4.27426V3.8114L14.886 3.50282L14.7317 3.19424L14.5774 2.73137L14.2689 2.11422L14.1146 1.80564H13.806L13.6517 1.65135H13.0345H12.4174H10.7202H10.4116L9.94876 1.49706L9.02303 1.65135H8.86874H8.40587H8.09729H7.78871H7.63443H7.48014L7.32585 1.80564H7.01727H6.86298L6.70869 1.95993L6.5544 2.26851L6.40011 2.57709L6.24582 2.88566L6.09154 3.19424L5.93725 3.50282V3.8114L5.78296 4.11997L5.62867 5.35429V5.81715L5.47438 6.28002V6.74289L5.32009 7.36004V7.66862L5.1658 7.9772L5.01151 9.05722L4.70293 9.82867V10.2915L4.54865 11.3716L4.39436 11.5258V12.143V12.4516L4.24007 13.0687L4.08578 13.6859V13.9945L3.93149 14.303L3.7772 15.3831L3.62291 15.6916V16.1545V16.4631L3.46862 16.926V17.5431L3.16005 18.3146L3.00576 18.6231V18.9317L2.85147 19.2403V19.3946L2.69718 20.0117V20.3203L2.54289 20.6289L2.3886 21.5546L2.08002 22.6347L1.92573 23.4061L1.46287 24.6404L1.30858 25.8747Z" fill="#26A0DA" stroke="#26A0DA" stroke-width="0.308578"/>
<path d="M30.502 1.65108L33.742 0.725342L33.2792 6.8969L33.5878 7.20548V8.13121L33.742 8.43979L33.8963 8.90266L34.6678 9.6741L34.8221 8.90266L35.1306 8.74837L35.2849 7.82263L35.5935 6.74261L35.1306 5.97117L34.5135 5.19972L33.8963 5.5083L33.3425 6.0522L33.6495 1.95965L33.742 0.725342H34.2049L35.7478 0.879631L36.5192 1.3425L37.445 1.65108L38.2164 1.80536L38.525 2.26823L39.4507 3.81112L40.0679 5.19972L40.3765 7.20548L40.2222 8.2855L39.7593 9.82839L39.065 11.217L38.9879 11.5256L38.3707 12.6056L36.9821 14.1485L34.0506 19.0857L33.5878 19.5486L33.2792 20.0886L33.1249 20.4743L32.9706 20.6286L32.0449 22.6344V23.0972L31.8134 23.6373L31.7363 24.6401L32.5077 25.4116L33.1249 25.7202H33.8963L36.2107 25.103L36.8278 24.1773L35.9792 22.3258L35.4392 21.4001L35.1306 20.4743L34.8221 20.32L34.6678 19.7029L34.3592 19.3943L34.0506 19.0857L35.53 16.5942L36.2544 15.3741L36.9821 14.1485L37.7536 15.8457L38.2164 16.3085L38.525 17.3886L40.2222 20.1658L40.9936 20.32L41.9194 18.9314L42.5365 17.8514L41.4565 18.0057L40.8393 17.5428L40.685 15.8457L40.9936 14.6113L40.8393 13.2227L46.0852 13.0685L49.7881 13.377L50.0967 14.1485V15.8457L50.251 17.08L49.7881 18.16L47.9366 18.0057L46.9338 19.6257L46.7023 20.1658L45.9309 21.2458L45.0051 23.4058L44.5423 23.7144L44.2337 24.1773L45.0051 25.2573L45.6223 25.8744L46.3937 26.183L47.0109 26.6459L48.2452 27.263V27.5716L47.9366 28.1888L47.0109 29.4231L46.548 29.886L45.9309 30.8117L44.8508 31.2746L44.388 30.966H43.9251L42.9994 30.1945L42.2279 29.886L40.2222 28.0345L38.9879 28.9602L38.8336 29.4231L37.445 30.0402L37.1364 30.3488L36.5192 30.6574L35.7478 30.8117L34.0506 31.1203L32.5077 30.966L31.042 30.3488L30.502 30.1945L29.5762 29.7317L28.6505 29.1145L27.5705 28.0345L27.2619 27.263L26.4905 26.0287L26.1819 22.943L26.4905 21.0915L27.2619 19.24L27.8791 18.3143L28.4962 17.5428L28.8048 16.7714L30.0391 15.5371L30.9648 13.8399L30.1934 12.6056L29.7305 11.217L28.9591 10.137L28.6505 8.90266L28.4191 7.89978L28.1876 7.51406V6.8969V5.66259L28.4962 4.73686L28.9591 3.96541L29.422 3.19397L30.502 1.65108Z" fill="#A3DCF0"/>
<path d="M34.205 9.21098L34.5136 9.67384L34.6679 9.51955C34.7193 9.36527 34.8221 9.02583 34.8221 8.9024C34.8221 8.74811 34.9764 8.74811 35.1307 8.74811C35.2542 8.74811 35.1822 8.54239 35.1307 8.43953C35.1822 8.33667 35.285 8.1001 35.285 7.97666C35.285 7.82238 35.4393 7.66809 35.4393 7.5138C35.4393 7.39037 35.5422 7.15379 35.5936 7.05093V6.58806C35.5936 6.46463 35.3879 6.22806 35.285 6.1252H35.1307L34.9764 5.50804L34.5136 5.19946L34.0507 5.35375L33.7421 5.50804C33.6907 5.66233 33.557 6.00177 33.4335 6.1252C33.2792 6.27949 33.4335 6.27949 33.2792 6.58806C33.125 6.89664 33.2792 6.74235 33.4335 6.89664C33.5878 7.05093 33.5878 7.05093 33.5878 7.20522C33.5878 7.32865 33.485 7.56523 33.4335 7.66809L33.7421 8.13095L33.8964 8.59382L34.205 9.21098Z" stroke="#A3DCF0" stroke-width="0.308578"/>
<path d="M33.4335 19.7028C33.5364 19.6514 34.0507 19.0548 34.0507 18.9314L34.205 19.24V19.3943L34.5135 19.5486L34.6678 20.0114V20.1657C34.7192 20.2171 34.8221 20.3509 34.8221 20.4743C34.8221 20.5977 34.925 20.5257 34.9764 20.4743L35.285 20.7829V21.0914L35.4393 21.5543L35.7478 22.1715L36.0564 22.6343L36.2107 22.9429L36.5193 23.2515L36.6736 23.7144L36.8279 24.0229V24.3315L36.5193 24.6401L36.2107 24.9487L35.9021 25.2572C35.7478 25.4115 35.5936 25.2572 35.4393 25.2572H35.1307L34.8221 25.5658C34.6678 25.6173 34.3284 25.7201 34.205 25.7201H34.0507H33.5878H33.1249C33.0221 25.6173 32.7855 25.4115 32.6621 25.4115C32.5386 25.4115 32.4049 25.3087 32.3535 25.2572L32.0449 25.103L31.8906 24.7944L31.7363 24.4858L31.8906 23.8686V23.5601L32.0449 22.9429V22.6343L32.1992 22.0172L32.5078 21.5543L32.6621 21.2457L32.8164 20.7829C32.8678 20.7314 33.0015 20.6286 33.1249 20.6286C33.2792 20.6286 33.1249 20.4743 33.2792 20.32C33.4026 20.1966 33.3306 20.0628 33.2792 20.0114L33.4335 19.7028Z" stroke="#A3DCF0" stroke-width="0.308578"/>
<path d="M37.5993 13.377L36.9821 14.3028L37.2907 14.9199L37.7536 15.8457C37.9078 15.9485 38.2164 16.1851 38.2164 16.3085V16.7714C38.3193 16.9771 38.5559 17.4194 38.6793 17.5428C38.8027 17.6663 38.9364 17.9028 38.9879 18.0057C39.0907 18.2629 39.3273 18.808 39.4507 18.9314L39.7593 19.24L40.2222 20.0115L40.685 20.4743L40.8393 20.32H41.1479L41.3022 19.7029L41.6108 19.3943L42.0736 18.9314L42.3822 18.3143L42.5365 18.0057L42.3822 17.8514C42.3308 17.8514 42.1971 17.8823 42.0736 18.0057C41.9194 18.16 41.4565 18.0057 41.3022 18.0057C41.1788 18.0057 41.0451 17.8 40.9936 17.6971L40.685 17.5428L40.8393 17.08V16.7714V16.1542L40.685 15.8457C40.7365 15.6399 40.8393 15.1976 40.8393 15.0742C40.8393 14.9508 40.9422 14.7142 40.9936 14.6114L40.8393 13.6856V13.2227L41.4565 13.0685H41.6108L42.9994 13.2227L44.0794 13.0685L44.8509 13.2227L45.9309 13.0685L47.1652 13.2227H48.0909H49.0167L49.7881 13.377L49.9424 13.6856C50.0452 13.7885 50.251 14.0559 50.251 14.3028C50.251 14.5496 50.1481 14.7142 50.0967 14.7656V15.6914V16C50.0967 16.2057 50.1275 16.648 50.251 16.7714C50.3744 16.8948 50.3024 17.1314 50.251 17.2343L50.0967 17.6971L49.9424 18.0057L49.7881 18.16H49.3252L47.7823 18.0057V18.3143C47.6281 18.52 47.3195 18.9623 47.3195 19.0857C47.3195 19.24 47.1652 19.3943 47.0109 19.5486C46.8566 19.7029 46.8566 19.8572 46.8566 20.0115C46.8566 20.1658 46.548 20.32 46.3937 20.4743C46.2395 20.6286 46.0852 20.9372 45.9309 21.2458C45.8074 21.4926 45.5709 21.8629 45.468 22.0172C45.3651 22.2229 45.1594 22.6652 45.1594 22.7887V23.2515C45.1594 23.4058 44.6966 23.7144 44.5423 23.7144C44.4188 23.7144 44.2851 23.9201 44.2337 24.023L44.388 24.4858L45.1594 25.2573L45.6223 25.8744L46.548 26.183L47.3195 26.8002C47.5252 26.903 47.9675 27.1088 48.0909 27.1088C48.2452 27.1088 48.2452 27.263 48.2452 27.4173C48.2452 27.5716 48.2452 27.8802 48.0909 28.0345C47.9675 28.1579 47.9366 28.2916 47.9366 28.3431L47.3195 28.8059C47.2166 29.0117 46.98 29.4539 46.8566 29.5774C46.7332 29.7008 46.5995 29.7317 46.548 29.7317L46.3937 30.1945L45.9309 30.8117L45.3137 31.1203C45.2109 31.1717 44.9743 31.2746 44.8509 31.2746C44.7274 31.2746 44.6966 31.1717 44.6966 31.1203L44.5423 30.966H43.9251C43.8017 30.966 43.5651 30.7603 43.4622 30.6574L43.1537 30.3488L42.8451 30.0402H42.2279L41.9194 29.5774L41.6108 29.2688L40.9936 28.8059L40.8393 28.4974L40.3765 28.0345L39.9136 28.3431L39.4507 28.6516L39.1422 28.9602C39.0907 29.0631 38.957 29.2997 38.8336 29.4231C38.7101 29.5465 38.5764 29.5774 38.525 29.5774L37.9078 29.7317L37.2907 30.3488C37.0335 30.4003 36.5192 30.534 36.5192 30.6574C36.5192 30.8117 36.2107 30.8117 36.0564 30.8117C35.9329 30.8117 35.2849 30.9146 34.9764 30.966H34.3592L33.5878 31.1203C33.2792 31.0688 32.6003 30.966 32.3534 30.966C32.0449 30.966 32.0449 30.8117 31.8906 30.8117C31.7671 30.8117 31.5306 30.7088 31.4277 30.6574C31.3249 30.606 31.0883 30.4723 30.9648 30.3488C30.8414 30.2254 30.7077 30.2974 30.6563 30.3488C30.502 30.2974 30.1934 30.1637 30.1934 30.0402C30.1934 29.9168 29.8848 29.886 29.7305 29.886L29.422 29.7317C29.3705 29.7317 29.2368 29.67 29.1134 29.4231C28.9899 29.1762 28.9591 29.2174 28.9591 29.2688L28.8048 29.1145L28.4962 28.9602L28.1876 28.6516L28.0334 28.4974L27.8791 28.1888L27.4162 27.8802L27.2619 27.4173L26.799 26.8002C26.7476 26.5945 26.6139 26.1522 26.4905 26.0287C26.367 25.9053 26.439 25.6687 26.4905 25.5659L26.3362 25.103C26.2847 24.8973 26.1819 24.4241 26.1819 24.1773V23.8687V23.0972V22.4801L26.3362 22.0172L26.4905 21.2458L26.6448 20.7829L26.799 20.4743L27.1076 19.8572L27.2619 19.24L27.4162 18.9314H27.5705C27.6219 18.8286 27.7248 18.592 27.7248 18.4686V18.3143L28.1876 17.8514L28.3419 17.5428L28.6505 17.3886L28.8048 16.9257V16.7714L29.1134 16.4628L29.2677 16.3085L29.5762 15.8457L29.8848 15.5371L30.1934 15.0742L30.502 14.7656L30.9648 13.9942C30.9134 13.9428 30.8106 13.809 30.8106 13.6856C30.8106 13.5313 30.8106 13.2227 30.6563 13.2227C30.5328 13.2227 30.3991 13.017 30.3477 12.9142L30.0391 12.6056V12.297L29.8848 11.8341V11.5256L29.5762 11.217V10.9084L29.2677 10.4455L28.9591 10.2913L28.8048 9.82839L28.6505 9.51981V9.05695L28.4962 8.59408C28.4448 8.49122 28.3419 8.25464 28.3419 8.13121C28.3419 8.00778 28.2391 7.7712 28.1876 7.66835V6.8969V6.43403V5.81688V5.66259L28.4962 4.89114V4.58257L28.8048 3.96541C28.8562 3.91398 28.9899 3.81112 29.1134 3.81112C29.2368 3.81112 29.2677 3.50254 29.2677 3.34825L29.422 3.03968L30.1934 2.11394L30.502 1.80536L30.6563 1.65108L31.4277 1.49679L31.8906 1.18821H32.3534L32.5077 1.03392L33.1249 0.879631L33.742 0.725342H33.8963H34.2049H34.3592L35.1306 0.879631L36.0564 1.03392L36.365 1.3425L37.2907 1.65108L38.0621 1.80536L38.525 2.11394L38.6793 2.57681L38.8336 2.88539C38.885 2.98825 39.0187 3.22482 39.1422 3.34825C39.2964 3.50254 39.4507 3.65683 39.4507 3.81112C39.4507 3.93455 39.6565 4.17113 39.7593 4.27399L39.9136 5.04543L40.0679 5.19972L40.2222 5.5083V5.97117V6.43403C40.2736 6.48546 40.3765 6.61918 40.3765 6.74261V7.20548V7.66835V7.97692C40.325 8.02835 40.2222 8.16207 40.2222 8.2855C40.2222 8.40893 40.1193 8.43979 40.0679 8.43979V8.90266C40.0165 9.10838 39.9136 9.55067 39.9136 9.6741V9.82839C39.8622 9.93125 39.7285 10.137 39.605 10.137C39.4816 10.137 39.4507 10.3427 39.4507 10.4455L39.605 10.5998L39.1422 10.9084V11.3713C39.1422 11.4947 38.9364 11.7313 38.8336 11.8341L38.525 12.297C38.3707 12.5027 38.0621 12.945 38.0621 13.0685C38.0621 13.1919 37.9593 13.2227 37.9078 13.2227L37.5993 13.377Z" stroke="#A3DCF0" stroke-width="0.308578"/>
<path d="M36.0564 25.8747L35.7478 27.5719L35.9021 27.8805L36.5193 28.3433L36.9821 28.6519C37.1878 28.8062 37.6301 29.1148 37.7536 29.1148C37.877 29.1148 38.3193 29.4234 38.525 29.5777L39.2965 29.8862L39.7593 30.0405L40.2222 30.1948L40.9936 30.5034L41.7651 30.6577L42.3822 30.9663L42.8451 31.1205L42.9994 30.9663L43.1537 30.6577L43.308 30.3491L43.4623 29.7319V29.4234C43.5137 29.2691 43.6165 28.9296 43.6165 28.8062V28.3433V27.8805L43.7708 27.109L43.9251 26.3376V25.7204L44.0794 25.4119V24.7947C44.0794 24.6713 44.1823 24.229 44.2337 24.0233L44.388 23.5604L44.5423 23.4061V23.0975V22.7889L44.6966 22.4804V21.8632V21.5546L44.8509 20.9375L45.1594 20.4746V20.166L45.3137 19.8574V19.3946L45.6223 18.4688L45.7766 17.6974L45.9309 17.2345L46.2395 15.8459L46.3937 15.5374L46.7023 15.0745L46.8566 14.9202L47.0109 15.2288L47.1652 15.3831V15.8459L47.4738 16.3088L47.6281 16.926L47.7823 17.342V17.3888L48.0909 18.1603C48.1938 18.4174 48.3995 18.9626 48.3995 19.086V19.5489L48.7081 20.3203C48.7595 20.526 48.8624 20.9683 48.8624 21.0918C48.8624 21.2152 49.0681 21.6575 49.171 21.8632C49.2738 22.1204 49.4795 22.6655 49.4795 22.7889C49.4795 22.9124 49.5824 23.2518 49.6338 23.4061L49.7881 23.7147V24.3318L50.4053 26.029L50.5596 26.4919L50.7138 26.9547L51.1767 28.8062L51.9482 30.0405L52.8739 30.3491L53.491 30.1948L54.1082 29.8862L54.2625 29.5777V29.1148L54.7254 28.3433L54.8796 27.109C54.9311 27.0576 55.0339 26.9239 55.0339 26.8005C55.0339 26.6462 55.1882 26.3376 55.3425 26.1833C55.4659 26.0599 55.4968 25.7204 55.4968 25.5661L55.8054 24.3318L56.114 23.7147C56.114 23.4575 56.1448 22.9124 56.2682 22.7889C56.3917 22.6655 56.4225 22.2232 56.4225 22.0175L56.7311 21.0918L57.194 20.0117C57.2454 19.8574 57.3791 19.518 57.5026 19.3946C57.626 19.2712 57.6568 18.726 57.6568 18.4688C57.7597 18.2631 57.9654 17.8208 57.9654 17.6974V17.3888L58.274 16.4631L58.5826 15.8459L59.0454 15.0745L59.5083 14.7659H59.6626C59.714 15.0231 59.8477 15.5374 59.9712 15.5374C60.0946 15.5374 60.1255 15.7431 60.1255 15.8459V16.926L60.2798 17.3888L60.434 17.6974L60.5883 18.1603L60.7426 19.3946L61.0512 20.3203L61.3598 21.5546L61.2055 21.8632L61.5141 22.4804V22.9432L61.6684 23.2518V23.7147C61.7712 23.9204 61.9769 24.3627 61.9769 24.4861V25.2576V25.4119L62.2855 26.6462L62.4398 28.0348L62.5941 28.9605V29.4234C62.5941 29.5777 62.7484 29.7319 62.7484 29.8862C62.7484 30.0097 62.9541 30.1434 63.057 30.1948L63.5198 30.3491H64.137L64.2913 30.1948L64.7541 30.0405L64.9084 29.8862H65.3713L65.9884 29.5777L66.6056 29.4234L67.6856 29.1148L68.4571 28.6519L68.9199 28.4976L69.5371 28.3433L70 28.0348V27.7262V27.109L69.8457 25.7204L69.6914 25.4119L69.5371 24.7947L69.3828 24.1775L69.2285 23.869V23.7147C69.1257 23.509 68.9199 23.0667 68.9199 22.9432C68.9199 22.8198 68.8171 22.5832 68.7656 22.4804L68.6114 21.5546L68.4571 21.2461V20.7832L68.1485 20.3203L67.9942 19.3946L67.8399 18.3146V18.006L67.6856 17.0802V16.1545L67.377 15.5374L67.2228 15.2288L67.0685 14.6116L66.9142 13.8402V13.5316L66.7599 12.7602L66.6056 12.143L66.4513 11.3716L66.297 10.9087V10.1372L65.9884 9.05722L65.8342 8.59436V7.9772L65.6799 7.51433V6.89718L65.3713 6.43431L65.217 6.12573V5.2V4.42855L64.9084 3.65711L64.7541 3.19424V2.88566L64.4456 2.26851V1.95993L63.6741 1.49706L62.9027 1.34277H62.4398C62.3369 1.3942 62.1004 1.49706 61.9769 1.49706H61.5141H61.0512L60.7426 1.34277H60.1255H59.8169C59.714 1.3942 59.4775 1.49706 59.354 1.49706H58.991H58.5826H58.4283L58.1197 1.34277L57.8111 1.65135C57.7597 1.59992 57.626 1.49706 57.5026 1.49706H57.0397L56.5768 2.26851L56.2682 2.88566L56.114 3.34853L55.8054 4.11997V4.58284L55.1882 5.97144L55.0339 6.43431L54.8796 7.05147L54.5711 7.66862L54.4168 7.9772L54.1082 9.3658L53.7996 9.67438L53.491 10.4458L53.1825 11.063L53.0282 11.8344L52.7196 12.2973L52.5653 12.9144L52.2567 12.7602L51.9482 12.6059L51.7939 12.143L51.6396 11.063L51.4853 10.4458L51.331 9.82867L51.1767 9.21151L50.8681 8.44007L50.7138 7.9772V7.51433L50.5596 7.05147L50.4053 6.43431V5.81715L50.0967 5.35429L49.9424 4.89142L49.7881 4.27426V3.8114L49.6338 3.50282L49.4795 3.19424L49.3252 2.73137L49.0167 2.11422L48.8624 1.80564H48.5538L48.3995 1.65135H47.7823H47.1652H45.468H45.1594L44.6966 1.49706L43.7708 1.65135H43.6165H43.1537H42.8451H42.5365H42.3822H42.2279L42.0737 1.80564H41.7651H41.6108L41.4565 1.95993L41.3022 2.26851L41.1479 2.57709L40.9936 2.88566L40.8393 3.19424L40.6851 3.50282V3.8114L40.5308 4.11997L40.3765 5.35429V5.81715L40.2222 6.28002V6.74289L40.0679 7.36004V7.66862L39.9136 7.9772L39.7593 9.05722L39.4507 9.82867V10.2915L39.2965 11.3716L39.1422 11.5258V12.143V12.4516L38.9879 13.0687L38.8336 13.6859V13.9945L38.6793 14.303L38.525 15.3831L38.3707 15.6916V16.1545V16.4631L38.2164 16.926V17.5431L37.9079 18.3146L37.7536 18.6231V18.9317L37.5993 19.2403V19.3946L37.445 20.0117V20.3203L37.2907 20.6289L37.1364 21.5546L36.8278 22.6347L36.6735 23.4061L36.2107 24.6404L36.0564 25.8747Z" fill="#26A0DA" stroke="#26A0DA" stroke-width="0.308578"/>
</svg>
