<svg width="100" height="95" viewBox="0 0 100 95" fill="none" xmlns="http://www.w3.org/2000/svg">
<path d="M19.0462 33.9906C22.1734 33.6927 24.6874 31.2874 25.123 28.1764C26.8154 16.0898 37.2079 6.78571 49.7619 6.78571C59.7695 6.78571 68.4113 12.6944 72.3624 21.2428C73.3142 23.3018 75.2314 24.7491 77.4725 25.0999C86.1206 26.4538 92.7381 33.9485 92.7381 42.9762C92.7381 50.4491 88.2084 56.8638 81.7448 59.6247C80.2696 60.2544 79.1667 61.6224 79.1667 63.2266C79.1667 65.4229 81.172 67.0926 83.2331 66.3344C92.7417 62.8366 99.5238 53.6985 99.5238 42.9762C99.5238 30.5544 90.421 20.2587 78.522 18.3958C73.5024 7.53549 62.5122 0 49.7619 0C33.7767 0 20.5579 11.8442 18.4028 27.2355C8.07672 28.219 0 36.9163 0 47.5C0 57.5917 7.34354 65.9684 16.9785 67.578C18.8267 67.887 20.3571 66.338 20.3572 64.4643C20.3572 62.5905 18.8146 61.1148 16.9987 60.6525C11.1278 59.1578 6.78571 53.836 6.78571 47.5C6.78571 40.4481 12.1694 34.6456 19.0462 33.9906Z" fill="#26A0DA"/>
<path d="M63.0596 72.3814L53.1551 62.477V91.6071C53.1551 93.4809 51.636 95 49.7623 95C47.8885 95 46.3694 93.4809 46.3694 91.6071V62.477L36.4657 72.3805C35.1407 73.7055 32.9925 73.7055 31.6675 72.3805C30.3425 71.0555 30.3425 68.9071 31.6675 67.5821L47.3633 51.8867C48.6879 50.5617 50.8362 50.5617 52.1613 51.8867L67.858 67.5835C69.183 68.9085 69.183 71.0564 67.858 72.3814C66.5329 73.7064 64.3846 73.7064 63.0596 72.3814Z" fill="#26A0DA"/>
</svg>
