<svg width="16" height="18" viewBox="0 0 16 18" fill="none" xmlns="http://www.w3.org/2000/svg">
<path d="M3.23117 5.45957L3.96832 5.46037L3.23117 5.45957ZM3.22721 9.1025L2.49007 9.10169L2.48926 9.83884L3.22641 9.83964L3.22721 9.1025ZM11.7986 9.11183L11.7978 9.84897L12.535 9.84977L12.5358 9.11263L11.7986 9.11183ZM3.96832 5.46037C3.97045 3.50055 5.56093 1.91353 7.52075 1.91567L7.52235 0.441382C4.74831 0.438362 2.49705 2.68472 2.49403 5.45877L3.96832 5.46037ZM3.96435 9.1033L3.96832 5.46037L2.49403 5.45877L2.49007 9.10169L3.96435 9.1033ZM3.22641 9.83964L11.7978 9.84897L11.7994 8.37468L3.22801 8.36535L3.22641 9.83964ZM11.0655 5.4681L11.0615 9.11102L12.5358 9.11263L12.5397 5.4697L11.0655 5.4681ZM7.52075 1.91567C9.48057 1.9178 11.0676 3.50828 11.0655 5.4681L12.5397 5.4697C12.5428 2.69566 10.2964 0.444401 7.52235 0.441382L7.52075 1.91567Z" fill="#26A0DA"/>
<rect x="0.655762" y="9.09973" width="13.7143" height="7.71429" rx="1.71429" transform="rotate(0.0623719 0.655762 9.09973)" fill="#26A0DA" stroke="#26A0DA" stroke-width="0.857143" stroke-linejoin="round"/>
</svg>
