<svg width="29" height="29" viewBox="0 0 29 29" fill="none" xmlns="http://www.w3.org/2000/svg">
<path fill-rule="evenodd" clip-rule="evenodd" d="M5.81615 5.65527C4.63864 5.65527 3.68408 6.60984 3.68408 7.78734L3.68408 21.6458C3.68408 22.8233 4.63864 23.7779 5.81615 23.7779L23.9387 23.7779C25.1162 23.7779 26.0708 22.8233 26.0708 21.6458L26.0708 7.78734C26.0708 6.60983 25.1162 5.65527 23.9387 5.65527L5.81615 5.65527ZM9.17429 10.1487C7.99679 10.1487 7.04223 11.1032 7.04223 12.2807L7.04223 17.154C7.04223 18.3316 7.99679 19.2861 9.1743 19.2861H13.8648C15.0424 19.2861 15.9969 18.3315 15.9969 17.154V12.2807C15.9969 11.1032 15.0424 10.1487 13.8648 10.1487L9.17429 10.1487ZM18.2357 12.3568C18.2357 11.768 18.713 11.2907 19.3017 11.2907H22.7663C23.3551 11.2907 23.8324 11.768 23.8324 12.3568V12.5091C23.8324 13.0978 23.3551 13.5751 22.7663 13.5751H19.3017C18.713 13.5751 18.2357 13.0978 18.2357 12.5091V12.3568ZM20.4208 15.8596C19.8321 15.8596 19.3548 16.3369 19.3548 16.9256V17.0779C19.3548 17.6667 19.8321 18.1439 20.4208 18.1439H22.7661C23.3549 18.1439 23.8321 17.6667 23.8321 17.0779V16.9256C23.8321 16.3369 23.3549 15.8596 22.7661 15.8596H20.4208Z" fill="#BBBCBD"/>
</svg>
